<?xml version="1.0" encoding="UTF-8" standalone="no"?><!DOCTYPE svg PUBLIC "-//W3C//DTD SVG 1.1//EN" "http://www.w3.org/Graphics/SVG/1.1/DTD/svg11.dtd"><svg width="100%" height="100%" viewBox="0 0 128 128" version="1.1" xmlns="http://www.w3.org/2000/svg" xmlns:xlink="http://www.w3.org/1999/xlink" xml:space="preserve" xmlns:serif="http://www.serif.com/" style="fill-rule:evenodd;clip-rule:evenodd;stroke-linejoin:round;stroke-miterlimit:2;"><path d="M0,128c-3.766,0 -3.766,-127.999 -0,-128c-0,-0 128,0 128,0c3.766,0 3.766,128 0,128l-128,0Z" style="fill:#3c2b9c;fill-rule:nonzero;"/><g><path d="M27.925,56.174c0,-21.022 17.06,-38.082 38.082,-38.082l30.782,0l-0,6.577l-30.782,0c-17.389,0 -31.505,14.116 -31.505,31.505l0,55.378l-6.577,0l0,-55.378Z" style="fill:#fff;fill-rule:nonzero;"/><path d="M39.763,56.896c-0,-14.904 12.062,-26.967 26.966,-26.967l29.992,0l0,6.578l-29.992,-0c-11.272,-0 -20.389,9.117 -20.389,20.389l-0,54.655l-6.577,0l-0,-54.655Z" style="fill:#fff;fill-rule:nonzero;"/><path d="M96.789,48.347l-30.06,0c-4.694,0.001 -8.548,3.855 -8.549,8.549l0,6.086c-2.322,0.925 -4.524,2.091 -6.577,3.465l0,-9.551c0.001,-8.326 6.8,-15.125 15.126,-15.126l30.06,0l-0,6.577Z" style="fill:#fff;fill-rule:nonzero;"/><path d="M39.763,96.359c0,-17.535 14.165,-31.7 31.7,-31.701l25.322,0l0,6.577l-25.322,0c-13.902,0.001 -25.123,11.221 -25.123,25.124l-0,15.193l-6.577,0l-0,-15.193Z" style="fill:#fff;fill-rule:nonzero;"/><path d="M51.603,96.359c0,-10.959 8.905,-19.863 19.863,-19.863l25.255,-0l0,6.577l-25.255,-0c-7.326,-0 -13.286,5.96 -13.286,13.286l0,15.193l-6.577,0l0,-15.193Z" style="fill:#fff;fill-rule:nonzero;"/><path d="M95.142,84.717c2.724,0 4.933,-2.208 4.933,-4.933c-0,-2.724 -2.209,-4.933 -4.933,-4.933c-2.724,0 -4.933,2.209 -4.933,4.933c0,2.725 2.209,4.933 4.933,4.933Z" style="fill:#fff;fill-rule:nonzero;"/><path d="M95.142,72.88c2.724,-0 4.933,-2.209 4.933,-4.933c-0,-2.724 -2.209,-4.933 -4.933,-4.933c-2.724,-0 -4.933,2.209 -4.933,4.933c0,2.724 2.209,4.933 4.933,4.933Z" style="fill:#fff;fill-rule:nonzero;"/><path d="M95.142,49.992c2.724,-0 4.933,-2.209 4.933,-4.933c-0,-2.725 -2.209,-4.933 -4.933,-4.933c-2.724,-0 -4.933,2.208 -4.933,4.933c0,2.724 2.209,4.933 4.933,4.933Z" style="fill:#fff;fill-rule:nonzero;"/><path d="M95.142,38.151c2.724,-0 4.933,-2.209 4.933,-4.933c-0,-2.724 -2.209,-4.933 -4.933,-4.933c-2.724,0 -4.933,2.209 -4.933,4.933c0,2.724 2.209,4.933 4.933,4.933Z" style="fill:#fff;fill-rule:nonzero;"/><path d="M95.142,26.313c2.724,0 4.933,-2.208 4.933,-4.932c-0,-2.725 -2.209,-4.933 -4.933,-4.933c-2.724,-0 -4.933,2.208 -4.933,4.933c0,2.724 2.209,4.932 4.933,4.932Z" style="fill:#fff;fill-rule:nonzero;"/></g></svg>