<?xml version="1.0" encoding="UTF-8" standalone="no"?><!DOCTYPE svg PUBLIC "-//W3C//DTD SVG 1.1//EN" "http://www.w3.org/Graphics/SVG/1.1/DTD/svg11.dtd"><svg width="100%" height="100%" viewBox="0 0 128 128" version="1.1" xmlns="http://www.w3.org/2000/svg" xmlns:xlink="http://www.w3.org/1999/xlink" xml:space="preserve" xmlns:serif="http://www.serif.com/" style="fill-rule:evenodd;clip-rule:evenodd;stroke-linejoin:round;stroke-miterlimit:2;"><path d="M26.863,35.123c7.512,-3.144 11.08,-11.845 7.968,-19.436c-3.112,-7.59 -11.725,-11.195 -19.238,-8.051c-7.513,3.144 -11.08,11.846 -7.968,19.437c3.112,7.59 11.725,11.194 19.238,8.05Z" style="fill:url(#_Linear1);fill-rule:nonzero;"/><path d="M78.539,66.388c1.303,-8.109 -4.148,-15.75 -12.175,-17.067c-8.026,-1.316 -15.59,4.191 -16.893,12.301c-1.303,8.109 4.148,15.75 12.175,17.067c8.027,1.316 15.59,-4.191 16.893,-12.301Z" style="fill:url(#_Linear2);fill-rule:nonzero;"/><path d="M21.229,121.5c8.132,0 14.725,-6.66 14.725,-14.876c0,-8.216 -6.593,-14.876 -14.725,-14.876c-8.131,0 -14.724,6.66 -14.724,14.876c0,8.216 6.593,14.876 14.724,14.876Z" style="fill:url(#_Linear3);fill-rule:nonzero;"/><path d="M106.774,121.5c8.132,0 14.724,-6.66 14.724,-14.876c0,-8.216 -6.592,-14.876 -14.724,-14.876c-8.132,0 -14.724,6.66 -14.724,14.876c0,8.216 6.592,14.876 14.724,14.876Z" style="fill:url(#_Linear4);fill-rule:nonzero;"/><path d="M65.416,91.817c-0.118,-0.01 -0.241,-0.02 -0.359,-0.03c-5.571,-0.393 -10.815,-2.788 -14.789,-6.748l-7.482,-7.455c-4.003,-3.989 -6.384,-9.308 -6.897,-14.965c-0.004,-0.055 -0.009,-0.115 -0.014,-0.17c-0.715,-7.077 -6.453,-12.724 -13.477,-13.272c-9.06,-0.707 -16.558,6.878 -15.843,16.031c0.557,7.132 6.211,12.938 13.26,13.601c0.118,0.01 0.241,0.02 0.36,0.03c5.57,0.393 10.815,2.789 14.793,6.748l7.482,7.455c4.003,3.99 6.384,9.308 6.897,14.966c0.005,0.055 0.01,0.115 0.014,0.169c0.715,7.077 6.458,12.724 13.477,13.272c9.06,0.708 16.558,-6.877 15.843,-16.036c-0.557,-7.131 -6.215,-12.938 -13.26,-13.601l-0.005,0.005Z" style="fill:url(#_Linear5);fill-rule:nonzero;"/><path d="M108.007,49.183c-0.06,0 -0.114,-0.01 -0.173,-0.015c-5.777,-0.413 -11.234,-2.804 -15.331,-6.942l-6.989,-7.062c-3.998,-4.039 -6.36,-9.403 -6.848,-15.1c0,-0.055 -0.009,-0.115 -0.014,-0.17c-0.68,-7.091 -6.413,-12.774 -13.443,-13.342c-9.08,-0.732 -16.607,6.868 -15.882,16.047c0.562,7.106 6.181,12.893 13.206,13.586c0.054,0.005 0.113,0.01 0.167,0.015c5.635,0.488 10.943,2.878 14.946,6.917l7.587,7.664c3.938,3.98 6.314,9.234 6.906,14.832c0.005,0.054 0.01,0.109 0.019,0.164c0.814,6.997 6.527,12.525 13.477,13.058c9.036,0.687 16.509,-6.873 15.819,-16.001c-0.547,-7.212 -6.31,-13.063 -13.447,-13.656l0,0.005Z" style="fill:url(#_Linear6);fill-rule:nonzero;"/><path d="M117.192,31.613c5.741,-5.744 5.741,-15.057 0,-20.801c-5.74,-5.744 -15.048,-5.744 -20.788,0c-5.741,5.744 -5.741,15.057 -0,20.801c5.74,5.744 15.048,5.744 20.788,0Z" style="fill:#9e6ee2;fill-rule:nonzero;"/><defs><linearGradient id="_Linear1" x1="0" y1="0" x2="1" y2="0" gradientUnits="userSpaceOnUse" gradientTransform="matrix(9.54153e-15,155.825,-155.825,9.54153e-15,21.2253,-12.9739)"><stop offset="0" style="stop-color:#7068e0;stop-opacity:1"/><stop offset="0.47" style="stop-color:#7068e0;stop-opacity:1"/><stop offset="0.6" style="stop-color:#7a69e0;stop-opacity:1"/><stop offset="1" style="stop-color:#b771e5;stop-opacity:1"/></linearGradient><linearGradient id="_Linear2" x1="0" y1="0" x2="1" y2="0" gradientUnits="userSpaceOnUse" gradientTransform="matrix(9.54153e-15,155.825,-155.825,9.54153e-15,64.0067,-12.9737)"><stop offset="0" style="stop-color:#7068e0;stop-opacity:1"/><stop offset="0.47" style="stop-color:#7068e0;stop-opacity:1"/><stop offset="0.6" style="stop-color:#7a69e0;stop-opacity:1"/><stop offset="1" style="stop-color:#b771e5;stop-opacity:1"/></linearGradient><linearGradient id="_Linear3" x1="0" y1="0" x2="1" y2="0" gradientUnits="userSpaceOnUse" gradientTransform="matrix(0.503152,155.825,-155.825,0.503152,6.50537,-12.9705)"><stop offset="0" style="stop-color:#7068e0;stop-opacity:1"/><stop offset="0.47" style="stop-color:#7068e0;stop-opacity:1"/><stop offset="0.6" style="stop-color:#7a69e0;stop-opacity:1"/><stop offset="1" style="stop-color:#b771e5;stop-opacity:1"/></linearGradient><linearGradient id="_Linear4" x1="0" y1="0" x2="1" y2="0" gradientUnits="userSpaceOnUse" gradientTransform="matrix(9.54153e-15,155.825,-155.825,9.54153e-15,106.774,-12.9705)"><stop offset="0" style="stop-color:#7068e0;stop-opacity:1"/><stop offset="0.47" style="stop-color:#7068e0;stop-opacity:1"/><stop offset="0.6" style="stop-color:#7a69e0;stop-opacity:1"/><stop offset="1" style="stop-color:#b771e5;stop-opacity:1"/></linearGradient><linearGradient id="_Linear5" x1="0" y1="0" x2="1" y2="0" gradientUnits="userSpaceOnUse" gradientTransform="matrix(9.54153e-15,155.825,-155.825,9.54153e-15,42.6131,-12.971)"><stop offset="0" style="stop-color:#7068e0;stop-opacity:1"/><stop offset="0.47" style="stop-color:#7068e0;stop-opacity:1"/><stop offset="0.6" style="stop-color:#7a69e0;stop-opacity:1"/><stop offset="1" style="stop-color:#b771e5;stop-opacity:1"/></linearGradient><linearGradient id="_Linear6" x1="0" y1="0" x2="1" y2="0" gradientUnits="userSpaceOnUse" gradientTransform="matrix(9.54153e-15,155.825,-155.825,9.54153e-15,85.3903,-12.9699)"><stop offset="0" style="stop-color:#7068e0;stop-opacity:1"/><stop offset="0.47" style="stop-color:#7068e0;stop-opacity:1"/><stop offset="0.6" style="stop-color:#7a69e0;stop-opacity:1"/><stop offset="1" style="stop-color:#b771e5;stop-opacity:1"/></linearGradient></defs></svg>