<?xml version="1.0" encoding="UTF-8" standalone="no"?><!DOCTYPE svg PUBLIC "-//W3C//DTD SVG 1.1//EN" "http://www.w3.org/Graphics/SVG/1.1/DTD/svg11.dtd"><svg width="100%" height="100%" viewBox="0 0 417 417" version="1.1" xmlns="http://www.w3.org/2000/svg" xmlns:xlink="http://www.w3.org/1999/xlink" xml:space="preserve" xmlns:serif="http://www.serif.com/" style="fill-rule:evenodd;clip-rule:evenodd;stroke-linejoin:round;stroke-miterlimit:2;"><g><g><path d="M62.584,177.251c0,-89.252 72.435,-161.686 161.687,-161.686l130.692,-0l-0,27.924l-130.692,0c-73.831,0 -133.762,59.931 -133.762,133.762l0,235.124l-27.925,0l0,-235.124Z" style="fill:#fff;fill-rule:nonzero;"/><path d="M112.844,180.318c-0,-63.282 51.212,-114.494 114.494,-114.494l127.339,-0l-0,27.924l-127.339,0c-47.859,0 -86.57,38.711 -86.57,86.57l0,232.053l-27.924,-0l-0,-232.053Z" style="fill:#fff;fill-rule:nonzero;"/><path d="M354.963,144.022l-127.625,-0c-19.93,0.002 -36.294,16.366 -36.297,36.296l0,25.839c-9.858,3.926 -19.208,8.877 -27.924,14.712l-0,-40.551c0.002,-35.353 28.868,-64.218 64.221,-64.221l127.625,-0l-0,27.925Z" style="fill:#fff;fill-rule:nonzero;"/><path d="M112.844,347.867c0.002,-74.447 60.144,-134.59 134.592,-134.593l107.513,-0l0,27.925l-107.513,-0c-59.025,0.002 -106.665,47.642 -106.668,106.668l0,64.508l-27.924,-0l-0,-64.508Z" style="fill:#fff;fill-rule:nonzero;"/><path d="M163.117,347.867c-0,-46.527 37.806,-84.334 84.333,-84.334l107.227,-0l-0,27.925l-107.227,-0c-31.105,-0 -56.409,25.305 -56.409,56.409l0,64.508l-27.924,0l-0,-64.508Z" style="fill:#fff;fill-rule:nonzero;"/><path d="M347.972,298.439c11.566,-0 20.944,-9.376 20.944,-20.944c-0,-11.566 -9.378,-20.943 -20.944,-20.943c-11.568,-0 -20.944,9.377 -20.944,20.943c0,11.568 9.376,20.944 20.944,20.944Z" style="fill:#fff;fill-rule:nonzero;"/><path d="M347.972,248.18c11.566,-0 20.944,-9.376 20.944,-20.944c-0,-11.566 -9.378,-20.943 -20.944,-20.943c-11.568,-0 -20.944,9.377 -20.944,20.943c0,11.568 9.376,20.944 20.944,20.944Z" style="fill:#fff;fill-rule:nonzero;"/><path d="M347.972,151.003c11.566,-0 20.944,-9.377 20.944,-20.944c-0,-11.568 -9.378,-20.943 -20.944,-20.943c-11.568,-0 -20.944,9.375 -20.944,20.943c0,11.567 9.376,20.944 20.944,20.944Z" style="fill:#fff;fill-rule:nonzero;"/><path d="M347.972,100.73c11.566,-0 20.944,-9.377 20.944,-20.944c-0,-11.566 -9.378,-20.944 -20.944,-20.944c-11.568,0 -20.944,9.378 -20.944,20.944c0,11.567 9.376,20.944 20.944,20.944Z" style="fill:#fff;fill-rule:nonzero;"/><path d="M347.972,50.471c11.566,-0 20.944,-9.378 20.944,-20.944c-0,-11.567 -9.378,-20.944 -20.944,-20.944c-11.568,0 -20.944,9.377 -20.944,20.944c0,11.566 9.376,20.944 20.944,20.944Z" style="fill:#fff;fill-rule:nonzero;"/></g></g></svg>