<?xml version="1.0" encoding="UTF-8" standalone="no"?><!DOCTYPE svg PUBLIC "-//W3C//DTD SVG 1.1//EN" "http://www.w3.org/Graphics/SVG/1.1/DTD/svg11.dtd"><svg width="100%" height="100%" viewBox="0 0 417 417" version="1.1" xmlns="http://www.w3.org/2000/svg" xmlns:xlink="http://www.w3.org/1999/xlink" xml:space="preserve" xmlns:serif="http://www.serif.com/" style="fill-rule:evenodd;clip-rule:evenodd;stroke-linejoin:round;stroke-miterlimit:2;"><g><clipPath id="_clip1"><rect x="50.927" y="46.874" width="329.646" height="322.918"/></clipPath><g clip-path="url(#_clip1)"><path d="M215.259,46.874c-90.871,0 -164.332,74.002 -164.332,165.553c0,73.181 47.069,135.128 112.366,157.053c8.163,1.648 11.154,-3.563 11.154,-7.945c-0,-3.838 -0.269,-16.994 -0.269,-30.701c-45.714,9.869 -55.233,-19.735 -55.233,-19.735c-7.346,-19.187 -18.231,-24.118 -18.231,-24.118c-14.962,-10.142 1.09,-10.142 1.09,-10.142c16.596,1.097 25.305,16.994 25.305,16.994c14.689,25.214 38.36,18.09 47.883,13.704c1.359,-10.69 5.715,-18.091 10.34,-22.201c-36.46,-3.838 -74.82,-18.09 -74.82,-81.682c0,-18.09 6.526,-32.89 16.866,-44.401c-1.631,-4.11 -7.346,-21.107 1.635,-43.856c-0,-0 13.875,-4.387 45.161,16.993c13.395,-3.624 27.209,-5.467 41.085,-5.483c13.875,0 28.02,1.921 41.081,5.483c31.29,-21.38 45.165,-16.993 45.165,-16.993c8.981,22.749 3.263,39.746 1.631,43.856c10.613,11.511 16.87,26.311 16.87,44.401c-0,63.592 -38.36,77.568 -75.092,81.682c5.987,5.207 11.154,15.073 11.154,30.697c-0,22.201 -0.269,40.019 -0.269,45.498c-0,4.386 2.993,9.597 11.154,7.952c65.297,-21.931 112.365,-83.875 112.365,-157.056c0.269,-91.551 -73.46,-165.553 -164.059,-165.553Z" style="fill:#fff;"/></g></g></svg>