<?xml version="1.0" encoding="UTF-8" standalone="no"?><!DOCTYPE svg PUBLIC "-//W3C//DTD SVG 1.1//EN" "http://www.w3.org/Graphics/SVG/1.1/DTD/svg11.dtd"><svg width="100%" height="100%" viewBox="0 0 417 417" version="1.1" xmlns="http://www.w3.org/2000/svg" xmlns:xlink="http://www.w3.org/1999/xlink" xml:space="preserve" xmlns:serif="http://www.serif.com/" style="fill-rule:evenodd;clip-rule:evenodd;stroke-linejoin:round;stroke-miterlimit:2;"><g><g id="LOGO"><path d="M361.833,177.977l-0.425,-1.087l-41.179,-107.467c-0.837,-2.106 -2.321,-3.893 -4.237,-5.104c-3.919,-2.433 -8.968,-2.161 -12.603,0.677c-1.758,1.429 -3.035,3.366 -3.654,5.545l-27.804,85.067l-112.588,-0l-27.804,-85.067c-0.603,-2.191 -1.882,-4.138 -3.654,-5.56c-3.636,-2.839 -8.684,-3.11 -12.603,-0.678c-1.912,1.216 -3.394,3.001 -4.237,5.104l-41.258,107.42l-0.409,1.087c-12.142,31.726 -1.756,67.917 25.362,88.375l0.142,0.11l0.378,0.268l62.729,46.975l31.033,23.488l18.904,14.273c4.53,3.439 10.844,3.439 15.375,-0l18.904,-14.273l31.033,-23.488l63.107,-47.259l0.157,-0.126c27.056,-20.46 37.422,-56.587 25.331,-88.28Z" style="fill:#fff;fill-rule:nonzero;"/></g></g></svg>