<svg width="56" height="56" viewBox="0 0 56 56" fill="none" xmlns="http://www.w3.org/2000/svg">
<rect width="56" height="56" rx="8" fill="#AEEA94" fill-opacity="0.1"/>
<path d="M27.8013 22.4895L29.2869 21.0039C30.9596 19.3312 33.1495 18.6374 35.4671 18.524C36.3686 18.4799 36.8193 18.4578 37.1807 18.8193C37.5422 19.1807 37.5201 19.6314 37.476 20.5329C37.3626 22.8505 36.6688 25.0404 34.9961 26.7131L33.5105 28.1987C32.2871 29.4221 31.9393 29.77 32.1961 31.097C32.4496 32.1107 32.6949 33.0923 31.9578 33.8294C31.0637 34.7235 30.2481 34.7235 29.354 33.8294L22.1706 26.646C21.2765 25.7519 21.2765 24.9363 22.1706 24.0422C22.9077 23.3051 23.8893 23.5504 24.903 23.8039C26.23 24.0607 26.5779 23.7129 27.8013 22.4895Z" stroke="#AEEA94" stroke-width="1.5" stroke-linejoin="round"/>
<path d="M32.9959 23H33.0049" stroke="#AEEA94" stroke-width="2" stroke-linecap="round" stroke-linejoin="round"/>
<path d="M18.5 37.5L23.5 32.5" stroke="#AEEA94" stroke-width="1.5" stroke-linecap="round"/>
<path d="M24.5 37.5L26.5 35.5" stroke="#AEEA94" stroke-width="1.5" stroke-linecap="round"/>
<path d="M18.5 31.5L20.5 29.5" stroke="#AEEA94" stroke-width="1.5" stroke-linecap="round"/>
</svg>
