<svg width="56" height="56" viewBox="0 0 56 56" fill="none" xmlns="http://www.w3.org/2000/svg">
<rect width="56" height="56" rx="8" fill="#AEEA94" fill-opacity="0.1"/>
<path d="M31.5 28C31.5 29.933 29.933 31.5 28 31.5C26.067 31.5 24.5 29.933 24.5 28C24.5 26.067 26.067 24.5 28 24.5C29.933 24.5 31.5 26.067 31.5 28Z" stroke="#AEEA94" stroke-width="1.5"/>
<path d="M37.011 30.0963C37.5329 29.9556 37.7939 29.8852 37.8969 29.7506C38 29.6161 38 29.3996 38 28.9667V27.033C38 26.6001 38 26.3836 37.8969 26.2491C37.7938 26.1145 37.5329 26.0441 37.011 25.9034C35.0606 25.3774 33.8399 23.3383 34.3433 21.4007C34.4817 20.8678 34.5509 20.6014 34.4848 20.4451C34.4187 20.2888 34.2291 20.1812 33.8497 19.9658L32.125 18.9866C31.7528 18.7752 31.5667 18.6695 31.3997 18.692C31.2326 18.7145 31.0442 18.9026 30.6672 19.2786C29.208 20.7343 26.7936 20.7342 25.3343 19.2785C24.9574 18.9025 24.769 18.7145 24.6019 18.6919C24.4349 18.6694 24.2488 18.7751 23.8765 18.9865L22.1518 19.9657C21.7725 20.1811 21.5829 20.2887 21.5168 20.445C21.4507 20.6012 21.5199 20.8677 21.6582 21.4006C22.1614 23.3383 20.9397 25.3775 18.989 25.9034C18.4671 26.0441 18.2062 26.1145 18.1031 26.249C18 26.3836 18 26.6001 18 27.033V28.9667C18 29.3996 18 29.6161 18.1031 29.7506C18.2062 29.8852 18.4671 29.9556 18.989 30.0963C20.9394 30.6223 22.1601 32.6614 21.6567 34.599C21.5183 35.1319 21.4491 35.3983 21.5152 35.5546C21.5813 35.7109 21.7709 35.8186 22.1502 36.0339L23.8749 37.0132C24.2472 37.2245 24.4333 37.3302 24.6004 37.3077C24.7675 37.2852 24.9559 37.0971 25.3327 36.7211C26.7927 35.2642 29.2088 35.2641 30.6689 36.721C31.0457 37.0971 31.2341 37.2851 31.4012 37.3076C31.5682 37.3301 31.7544 37.2244 32.1266 37.0131L33.8513 36.0338C34.2307 35.8185 34.4204 35.7108 34.4864 35.5545C34.5525 35.3982 34.4833 35.1318 34.3448 34.5989C33.8412 32.6614 35.0609 30.6224 37.011 30.0963Z" stroke="#AEEA94" stroke-width="1.5" stroke-linecap="round"/>
</svg>
