<svg width="56" height="56" viewBox="0 0 56 56" fill="none" xmlns="http://www.w3.org/2000/svg">
<rect width="56" height="56" rx="8" fill="#AEEA94" fill-opacity="0.1"/>
<path d="M22.25 26.5C24.5972 26.5 26.5 24.5972 26.5 22.25C26.5 19.9028 24.5972 18 22.25 18C19.9028 18 18 19.9028 18 22.25C18 24.5972 19.9028 26.5 22.25 26.5Z" stroke="#AEEA94" stroke-width="1.5"/>
<path d="M33.75 38C36.0972 38 38 36.0972 38 33.75C38 31.4028 36.0972 29.5 33.75 29.5C31.4028 29.5 29.5 31.4028 29.5 33.75C29.5 36.0972 31.4028 38 33.75 38Z" stroke="#AEEA94" stroke-width="1.5"/>
<path d="M22.25 38C24.5972 38 26.5 36.0972 26.5 33.75C26.5 31.4028 24.5972 29.5 22.25 29.5C19.9028 29.5 18 31.4028 18 33.75C18 36.0972 19.9028 38 22.25 38Z" stroke="#AEEA94" stroke-width="1.5"/>
<path d="M34 18V26M38 22H30" stroke="#AEEA94" stroke-width="1.5" stroke-linecap="round" stroke-linejoin="round"/>
</svg>
