<?xml version="1.0" encoding="UTF-8" standalone="no"?><!DOCTYPE svg PUBLIC "-//W3C//DTD SVG 1.1//EN" "http://www.w3.org/Graphics/SVG/1.1/DTD/svg11.dtd"><svg width="100%" height="100%" viewBox="0 0 457 280" version="1.1" xmlns="http://www.w3.org/2000/svg" xmlns:xlink="http://www.w3.org/1999/xlink" xml:space="preserve" xmlns:serif="http://www.serif.com/" style="fill-rule:evenodd;clip-rule:evenodd;stroke-linejoin:round;stroke-miterlimit:2;"><path d="M457,20l0,240c0,11.038 -8.962,20 -20,20l-417,0c-11.038,0 -20,-8.962 -20,-20l0,-240c0,-11.038 8.962,-20 20,-20l417,0c11.038,0 20,8.962 20,20Z" style="fill:#18123f;"/><g><clipPath id="_clip1"><rect x="125" y="37" width="208" height="206"/></clipPath><g clip-path="url(#_clip1)"><path d="M161.822,88.265c13.59,-5.632 20.043,-21.221 14.414,-34.818c-5.629,-13.598 -21.208,-20.055 -34.798,-14.422c-13.589,5.632 -20.042,21.221 -14.413,34.818c5.629,13.597 21.208,20.054 34.797,14.422Z" style="fill:url(#_Linear2);fill-rule:nonzero;"/><path d="M325.203,82.491c10.401,-10.407 10.401,-27.28 -0,-37.687c-10.401,-10.407 -27.264,-10.407 -37.665,-0c-10.401,10.407 -10.401,27.28 0,37.687c10.401,10.407 27.264,10.407 37.665,0Z" style="fill:#9e6ee2;fill-rule:nonzero;"/><path d="M255.295,144.274c2.357,-14.527 -7.502,-28.216 -22.021,-30.574c-14.519,-2.358 -28.2,7.507 -30.557,22.034c-2.356,14.528 7.503,28.217 22.022,30.575c14.519,2.358 28.2,-7.507 30.556,-22.035Z" style="fill:url(#_Linear3);fill-rule:nonzero;"/><path d="M151.633,243c14.709,0 26.633,-11.931 26.633,-26.649c-0,-14.718 -11.924,-26.649 -26.633,-26.649c-14.709,0 -26.633,11.931 -26.633,26.649c-0,14.718 11.924,26.649 26.633,26.649Z" style="fill:url(#_Linear4);fill-rule:nonzero;"/><path d="M306.367,243c14.709,0 26.633,-11.931 26.633,-26.649c0,-14.718 -11.924,-26.649 -26.633,-26.649c-14.709,0 -26.633,11.931 -26.633,26.649c-0,14.718 11.924,26.649 26.633,26.649Z" style="fill:url(#_Linear5);fill-rule:nonzero;"/><path d="M231.559,189.827c-0.214,-0.018 -0.437,-0.035 -0.651,-0.053c-10.075,-0.705 -19.562,-4.996 -26.749,-12.089l-13.535,-13.356c-7.24,-7.146 -11.546,-16.674 -12.474,-26.809c-0.009,-0.098 -0.018,-0.205 -0.027,-0.304c-1.292,-12.677 -11.671,-22.794 -24.377,-23.776c-16.388,-1.266 -29.95,12.321 -28.657,28.719c1.008,12.776 11.235,23.178 23.985,24.365c0.214,0.018 0.437,0.036 0.651,0.054c10.075,0.704 19.562,4.996 26.758,12.088l13.535,13.356c7.24,7.146 11.547,16.674 12.474,26.809c0.009,0.099 0.018,0.206 0.027,0.304c1.292,12.677 11.68,22.794 24.377,23.776c16.388,1.267 29.95,-12.321 28.657,-28.728c-1.008,-12.776 -11.244,-23.178 -23.985,-24.365l-0.009,0.009Z" style="fill:url(#_Linear6);fill-rule:nonzero;"/><path d="M308.596,113.449c-0.107,0 -0.205,-0.018 -0.312,-0.027c-10.45,-0.74 -20.32,-5.022 -27.73,-12.436l-12.643,-12.651c-7.231,-7.236 -11.502,-16.844 -12.385,-27.05c0,-0.099 -0.018,-0.206 -0.027,-0.304c-1.23,-12.704 -11.6,-22.884 -24.314,-23.901c-16.424,-1.311 -30.04,12.303 -28.729,28.746c1.017,12.731 11.181,23.098 23.887,24.338c0.098,0.009 0.205,0.018 0.303,0.027c10.191,0.874 19.794,5.156 27.034,12.392l13.723,13.73c7.124,7.128 11.421,16.541 12.491,26.569c0.009,0.098 0.018,0.196 0.036,0.294c1.471,12.535 11.805,22.438 24.377,23.392c16.344,1.232 29.861,-12.311 28.613,-28.665c-0.99,-12.918 -11.413,-23.401 -24.324,-24.463l0,0.009Z" style="fill:url(#_Linear7);fill-rule:nonzero;"/></g></g><defs><linearGradient id="_Linear2" x1="0" y1="0" x2="1" y2="0" gradientUnits="userSpaceOnUse" gradientTransform="matrix(1.70929e-14,279.148,-279.148,1.70929e-14,151.626,2.10272)"><stop offset="0" style="stop-color:#7068e0;stop-opacity:1"/><stop offset="0.47" style="stop-color:#7068e0;stop-opacity:1"/><stop offset="0.6" style="stop-color:#7a69e0;stop-opacity:1"/><stop offset="1" style="stop-color:#b771e5;stop-opacity:1"/></linearGradient><linearGradient id="_Linear3" x1="0" y1="0" x2="1" y2="0" gradientUnits="userSpaceOnUse" gradientTransform="matrix(1.70929e-14,279.148,-279.148,1.70929e-14,229.009,2.10301)"><stop offset="0" style="stop-color:#7068e0;stop-opacity:1"/><stop offset="0.47" style="stop-color:#7068e0;stop-opacity:1"/><stop offset="0.6" style="stop-color:#7a69e0;stop-opacity:1"/><stop offset="1" style="stop-color:#b771e5;stop-opacity:1"/></linearGradient><linearGradient id="_Linear4" x1="0" y1="0" x2="1" y2="0" gradientUnits="userSpaceOnUse" gradientTransform="matrix(0.893,279.149,-279.149,0.893,125,2.10745)"><stop offset="0" style="stop-color:#7068e0;stop-opacity:1"/><stop offset="0.47" style="stop-color:#7068e0;stop-opacity:1"/><stop offset="0.6" style="stop-color:#7a69e0;stop-opacity:1"/><stop offset="1" style="stop-color:#b771e5;stop-opacity:1"/></linearGradient><linearGradient id="_Linear5" x1="0" y1="0" x2="1" y2="0" gradientUnits="userSpaceOnUse" gradientTransform="matrix(1.70929e-14,279.149,-279.149,1.70929e-14,306.367,2.10746)"><stop offset="0" style="stop-color:#7068e0;stop-opacity:1"/><stop offset="0.47" style="stop-color:#7068e0;stop-opacity:1"/><stop offset="0.6" style="stop-color:#7a69e0;stop-opacity:1"/><stop offset="1" style="stop-color:#b771e5;stop-opacity:1"/></linearGradient><linearGradient id="_Linear6" x1="0" y1="0" x2="1" y2="0" gradientUnits="userSpaceOnUse" gradientTransform="matrix(1.70929e-14,279.148,-279.148,1.70929e-14,190.312,2.10762)"><stop offset="0" style="stop-color:#7068e0;stop-opacity:1"/><stop offset="0.47" style="stop-color:#7068e0;stop-opacity:1"/><stop offset="0.6" style="stop-color:#7a69e0;stop-opacity:1"/><stop offset="1" style="stop-color:#b771e5;stop-opacity:1"/></linearGradient><linearGradient id="_Linear7" x1="0" y1="0" x2="1" y2="0" gradientUnits="userSpaceOnUse" gradientTransform="matrix(1.70929e-14,279.149,-279.149,1.70929e-14,267.688,2.10744)"><stop offset="0" style="stop-color:#7068e0;stop-opacity:1"/><stop offset="0.47" style="stop-color:#7068e0;stop-opacity:1"/><stop offset="0.6" style="stop-color:#7a69e0;stop-opacity:1"/><stop offset="1" style="stop-color:#b771e5;stop-opacity:1"/></linearGradient></defs></svg>