<?xml version="1.0" encoding="UTF-8" standalone="no"?>
<!DOCTYPE svg PUBLIC "-//W3C//DTD SVG 1.1//EN" "http://www.w3.org/Graphics/SVG/1.1/DTD/svg11.dtd">
<svg width="100%" height="100%" viewBox="0 0 75 12" version="1.1" xmlns="http://www.w3.org/2000/svg" xmlns:xlink="http://www.w3.org/1999/xlink" xml:space="preserve" xmlns:serif="http://www.serif.com/" style="fill-rule:evenodd;clip-rule:evenodd;stroke-linejoin:round;stroke-miterlimit:2;">
    <g transform="matrix(1,0,0,1,-13.5122,-10.2319)">
        <path d="M13.512,15.064C13.512,12.507 15.587,10.432 18.144,10.432L21.888,10.432L21.888,11.232L18.144,11.232C16.029,11.232 14.312,12.949 14.312,15.064L14.312,21.8L13.512,21.8L13.512,15.064Z" style="fill:white;fill-rule:nonzero;"/>
        <path d="M14.952,15.152C14.952,13.339 16.419,11.872 18.232,11.872L21.88,11.872L21.88,12.672L18.232,12.672C16.861,12.672 15.752,13.781 15.752,15.152L15.752,21.8L14.952,21.8L14.952,15.152Z" style="fill:white;fill-rule:nonzero;"/>
        <path d="M21.888,14.112L18.232,14.112C17.661,14.112 17.192,14.581 17.192,15.152L17.192,15.892C16.91,16.005 16.642,16.146 16.392,16.314L16.392,15.152C16.392,14.139 17.219,13.312 18.232,13.312L21.888,13.312L21.888,14.112Z" style="fill:white;fill-rule:nonzero;"/>
        <path d="M14.952,19.952C14.952,17.819 16.675,16.096 18.808,16.096L21.888,16.096L21.888,16.896L18.808,16.896C17.117,16.896 15.752,18.261 15.752,19.952L15.752,21.8L14.952,21.8L14.952,19.952Z" style="fill:white;fill-rule:nonzero;"/>
        <path d="M16.392,19.952C16.392,18.619 17.475,17.536 18.808,17.536L21.88,17.536L21.88,18.336L18.808,18.336C17.917,18.336 17.192,19.061 17.192,19.952L17.192,21.8L16.392,21.8L16.392,19.952Z" style="fill:white;fill-rule:nonzero;"/>
        <path d="M21.688,18.536C22.02,18.536 22.288,18.267 22.288,17.936C22.288,17.605 22.02,17.336 21.688,17.336C21.357,17.336 21.088,17.605 21.088,17.936C21.088,18.267 21.357,18.536 21.688,18.536Z" style="fill:white;fill-rule:nonzero;"/>
        <path d="M21.688,17.096C22.02,17.096 22.288,16.827 22.288,16.496C22.288,16.165 22.02,15.896 21.688,15.896C21.357,15.896 21.088,16.165 21.088,16.496C21.088,16.827 21.357,17.096 21.688,17.096Z" style="fill:white;fill-rule:nonzero;"/>
        <path d="M21.688,14.312C22.02,14.312 22.288,14.043 22.288,13.712C22.288,13.38 22.02,13.112 21.688,13.112C21.357,13.112 21.088,13.38 21.088,13.712C21.088,14.043 21.357,14.312 21.688,14.312Z" style="fill:white;fill-rule:nonzero;"/>
        <path d="M21.688,12.872C22.02,12.872 22.288,12.603 22.288,12.272C22.288,11.941 22.02,11.672 21.688,11.672C21.357,11.672 21.088,11.941 21.088,12.272C21.088,12.603 21.357,12.872 21.688,12.872Z" style="fill:white;fill-rule:nonzero;"/>
        <path d="M21.688,11.432C22.02,11.432 22.288,11.163 22.288,10.832C22.288,10.501 22.02,10.232 21.688,10.232C21.357,10.232 21.088,10.501 21.088,10.832C21.088,11.163 21.357,11.432 21.688,11.432Z" style="fill:white;fill-rule:nonzero;"/>
        <path d="M88.4,12L88.4,20C88.4,20.663 87.862,21.2 87.2,21.2L65.6,21.2C64.938,21.2 64.4,20.663 64.4,20L64.4,12C64.4,11.338 64.938,10.8 65.6,10.8L87.2,10.8C87.862,10.8 88.4,11.338 88.4,12Z" style="fill:rgb(60,43,156);"/>
        <path d="M67.814,19.2L66.762,19.2L66.762,13.723L67.714,13.723L67.826,14.563C68.173,13.936 68.867,13.567 69.64,13.567C71.085,13.567 71.746,14.451 71.746,15.851L71.746,19.2L70.693,19.2L70.693,16.087C70.693,14.978 70.178,14.53 69.371,14.53C68.386,14.53 67.814,15.235 67.814,16.299L67.814,19.2ZM75.097,19.335C73.484,19.335 72.375,18.17 72.375,16.467C72.375,14.754 73.461,13.567 75.052,13.567C76.609,13.567 77.628,14.642 77.628,16.266L77.628,16.658L73.394,16.669C73.473,17.823 74.077,18.461 75.119,18.461C75.937,18.461 76.474,18.125 76.653,17.498L77.639,17.498C77.37,18.674 76.452,19.335 75.097,19.335ZM75.052,14.451C74.133,14.451 73.551,15 73.417,15.963L76.575,15.963C76.575,15.056 75.981,14.451 75.052,14.451ZM78.909,19.2L77.7,19.2L79.615,16.49L77.711,13.723L78.932,13.723L80.321,15.762L81.676,13.723L82.874,13.723L80.97,16.49L82.841,19.2L81.62,19.2L80.254,17.195L78.909,19.2ZM85.271,19.2L84.218,19.2L84.218,14.608L83.143,14.608L83.143,13.723L84.218,13.723L84.218,12.01L85.271,12.01L85.271,13.723L86.346,13.723L86.346,14.608L85.271,14.608L85.271,19.2Z" style="fill:white;fill-rule:nonzero;"/>
        <path d="M25.814,16.522C25.814,14.976 26.811,13.766 28.401,13.766C29.286,13.766 29.97,14.169 30.317,14.853L30.395,13.923L31.336,13.923L31.336,19.176C31.336,20.901 30.272,21.998 28.592,21.998C27.102,21.998 26.083,21.158 25.882,19.77L26.934,19.77C27.069,20.576 27.674,21.046 28.592,21.046C29.622,21.046 30.294,20.374 30.294,19.333L30.294,18.235C29.936,18.874 29.219,19.254 28.357,19.254C26.8,19.254 25.814,18.056 25.814,16.522ZM26.867,16.499C26.867,17.53 27.506,18.336 28.536,18.336C29.6,18.336 30.25,17.574 30.25,16.499C30.25,15.446 29.622,14.685 28.547,14.685C27.494,14.685 26.867,15.491 26.867,16.499ZM33.124,12.624C32.743,12.624 32.43,12.31 32.43,11.93C32.43,11.538 32.743,11.235 33.124,11.235C33.505,11.235 33.819,11.538 33.819,11.93C33.819,12.31 33.505,12.624 33.124,12.624ZM32.609,19.4L32.609,13.923L33.662,13.923L33.662,19.4L32.609,19.4ZM36.489,19.4L35.437,19.4L35.437,14.808L34.361,14.808L34.361,13.923L35.437,13.923L35.437,12.21L36.489,12.21L36.489,13.923L37.565,13.923L37.565,14.808L36.489,14.808L36.489,19.4ZM37.988,16.902L37.988,15.961L41.404,15.961L41.404,16.902L37.988,16.902ZM47.062,19.4L46.02,19.4L46.02,14.808L43.679,14.808L43.679,19.4L42.627,19.4L42.627,14.808L41.82,14.808L41.82,13.923L42.627,13.923L42.627,13.05C42.627,11.706 43.343,11.157 44.295,11.157C44.497,11.157 44.732,11.168 44.945,11.202L44.945,12.109L44.475,12.109C43.836,12.109 43.679,12.456 43.679,13.05L43.679,13.923L46.02,13.923L46.02,11.157L47.062,11.157L47.062,19.4ZM47.999,16.656C47.999,14.965 49.209,13.778 50.855,13.778C52.49,13.778 53.7,14.965 53.7,16.656C53.7,18.347 52.49,19.534 50.855,19.534C49.209,19.534 47.999,18.347 47.999,16.656ZM49.063,16.656C49.063,17.798 49.791,18.594 50.855,18.594C51.908,18.594 52.647,17.798 52.647,16.656C52.647,15.514 51.908,14.718 50.855,14.718C49.791,14.718 49.063,15.514 49.063,16.656ZM55.544,19.4L53.752,13.923L54.838,13.923L55.745,16.768C55.868,17.171 55.98,17.586 56.081,18.067C56.171,17.586 56.316,17.126 56.44,16.768L57.358,13.923L58.433,13.923L59.34,16.768C59.43,17.037 59.609,17.675 59.699,18.067C59.788,17.63 59.889,17.25 60.046,16.768L60.964,13.923L62.062,13.923L60.192,19.4L59.195,19.4L58.243,16.466C58.064,15.917 57.952,15.491 57.896,15.189C57.84,15.458 57.739,15.816 57.537,16.477L56.585,19.4L55.544,19.4Z" style="fill:white;fill-rule:nonzero;"/>
    </g>
</svg>
