<svg width="178" height="32" viewBox="0 0 178 32" fill="none" xmlns="http://www.w3.org/2000/svg">
<g clip-path="url(#clip0_689_280)">
<path d="M5.66498 7.9633C7.75565 7.08839 8.74846 4.66684 7.88247 2.55462C7.01649 0.442398 4.61964 -0.560641 2.52897 0.31427C0.438295 1.18918 -0.554511 3.61073 0.311474 5.72295C1.17746 7.83518 3.5743 8.83822 5.66498 7.9633Z" fill="url(#paint0_linear_689_280)"/>
<path d="M30.8004 7.06681C32.4006 5.45018 32.4006 2.82911 30.8004 1.21249C29.2003 -0.404136 26.606 -0.404136 25.0058 1.21249C23.4057 2.82911 23.4057 5.45018 25.0058 7.06681C26.606 8.68343 29.2003 8.68343 30.8004 7.06681Z" fill="url(#paint1_linear_689_280)"/>
<path d="M20.0454 16.6637C20.408 14.407 18.8912 12.2806 16.6575 11.9143C14.4238 11.548 12.3191 13.0805 11.9565 15.3372C11.5939 17.5939 13.1108 19.7203 15.3445 20.0866C17.5782 20.4529 19.6829 18.9205 20.0454 16.6637Z" fill="url(#paint2_linear_689_280)"/>
<path d="M4.09739 32C6.36032 32 8.19479 30.1466 8.19479 27.8603C8.19479 25.5741 6.36032 23.7207 4.09739 23.7207C1.83447 23.7207 0 25.5741 0 27.8603C0 30.1466 1.83447 32 4.09739 32Z" fill="url(#paint3_linear_689_280)"/>
<path d="M27.9026 32C30.1655 32 32 30.1466 32 27.8603C32 25.5741 30.1655 23.7207 27.9026 23.7207C25.6397 23.7207 23.8052 25.5741 23.8052 27.8603C23.8052 30.1466 25.6397 32 27.9026 32Z" fill="url(#paint4_linear_689_280)"/>
<path d="M16.3937 23.74C16.3608 23.7372 16.3265 23.7344 16.2936 23.7317C14.7435 23.6222 13.284 22.9556 12.1783 21.8538L10.096 19.7791C8.98217 18.669 8.31962 17.1889 8.17696 15.6146C8.17559 15.5993 8.17421 15.5827 8.17284 15.5674C7.97394 13.5981 6.37723 12.0265 4.4225 11.8741C1.90124 11.6773 -0.185182 13.788 0.0137201 16.3352C0.168727 18.3198 1.74212 19.9357 3.70371 20.1201C3.73663 20.1228 3.77092 20.1256 3.80384 20.1284C5.35391 20.2379 6.81345 20.9045 7.92044 22.0062L10.0027 24.0809C11.1166 25.191 11.7792 26.6711 11.9218 28.2455C11.9232 28.2607 11.9246 28.2774 11.9259 28.2926C12.1248 30.2619 13.7229 31.8335 15.6763 31.986C18.1975 32.1828 20.284 30.0721 20.085 27.5234C19.93 25.5389 18.3553 23.9229 16.3951 23.7386L16.3937 23.74Z" fill="url(#paint5_linear_689_280)"/>
<path d="M28.2456 11.8758C28.2291 11.8758 28.214 11.873 28.1975 11.8716C26.5899 11.7566 25.0713 11.0913 23.9314 9.93968L21.9863 7.9745C20.8738 6.85055 20.2167 5.35796 20.0809 3.77251C20.0809 3.75726 20.0782 3.74063 20.0768 3.72539C19.8875 1.75189 18.2922 0.170603 16.3361 0.0126126C13.8093 -0.191112 11.7147 1.92374 11.9163 4.47792C12.0727 6.45558 13.6365 8.06597 15.5912 8.25861C15.6063 8.25999 15.6228 8.26138 15.6379 8.26276C17.2058 8.39858 18.6831 9.0638 19.797 10.1878L21.9081 12.3206C23.0041 13.4279 23.6653 14.89 23.8299 16.4478C23.8313 16.463 23.8327 16.4783 23.8354 16.4935C24.0617 18.4407 25.6516 19.979 27.5857 20.1273C30.1002 20.3185 32.1797 18.2148 31.9877 15.6745C31.8354 13.6677 30.2318 12.0393 28.2456 11.8744V11.8758Z" fill="url(#paint6_linear_689_280)"/>
</g>
<path d="M52.9863 22.6495C52.6641 22.8428 52.1293 23.0683 51.3819 23.326C50.6473 23.5709 49.7839 23.6933 48.7916 23.6933C47.6704 23.6933 46.7297 23.4613 45.9694 22.9974C45.2219 22.5335 44.6549 21.8956 44.2683 21.0837C43.8817 20.2718 43.6884 19.344 43.6884 18.3001V15.5359C43.6884 14.4663 43.8817 13.532 44.2683 12.733C44.6549 11.9211 45.2284 11.2897 45.9887 10.8386C46.7619 10.3876 47.7284 10.1621 48.8882 10.1621C49.4553 10.1621 50.0416 10.2265 50.6473 10.3554C51.253 10.4714 51.9167 10.6904 52.6383 11.0126L51.9231 13.0423C51.2916 12.7974 50.744 12.6235 50.28 12.5204C49.829 12.4044 49.3779 12.3464 48.9269 12.3464C47.9217 12.3464 47.1936 12.6364 46.7426 13.2163C46.2915 13.7833 46.066 14.5565 46.066 15.5359V18.3001C46.066 19.228 46.2915 19.9883 46.7426 20.5811C47.2065 21.1739 47.9282 21.4703 48.9076 21.4703C49.204 21.4703 49.5261 21.4445 49.8741 21.393C50.222 21.3414 50.5571 21.2706 50.8793 21.1804V18.3001H48.7529V16.2705H52.9863V22.6495ZM58.2545 23.5H55.9349V10.3554H58.2545V23.5ZM60.3155 12.5784V10.3554H69.9806V12.5784H66.3079V23.5H63.9882V12.5784H60.3155ZM69.752 18.3775V16.4444H75.6284V18.3775H69.752ZM85.1447 18.4548H80.7374V23.5H78.4177V10.3554H85.7246V12.5784H80.7374V16.2318H85.1447V18.4548ZM95.7547 21.277V23.5H88.1773V10.3554H90.4969V21.277H95.7547ZM107.178 15.5359V18.3001C107.178 19.9754 106.759 21.2963 105.922 22.2629C105.084 23.2165 103.86 23.6933 102.249 23.6933C100.625 23.6933 99.3944 23.2165 98.5567 22.2629C97.732 21.2963 97.3196 19.9754 97.3196 18.3001V15.5359C97.3196 13.8606 97.732 12.5462 98.5567 11.5925C99.3944 10.6389 100.625 10.1621 102.249 10.1621C103.86 10.1621 105.084 10.6389 105.922 11.5925C106.759 12.5462 107.178 13.8606 107.178 15.5359ZM104.8 15.5359C104.8 14.4792 104.594 13.6866 104.182 13.1583C103.769 12.617 103.125 12.3464 102.249 12.3464C101.373 12.3464 100.728 12.617 100.316 13.1583C99.9034 13.6866 99.6972 14.4792 99.6972 15.5359V18.3001C99.6972 19.3569 99.9034 20.1559 100.316 20.6971C100.728 21.2384 101.373 21.509 102.249 21.509C103.125 21.509 103.769 21.2384 104.182 20.6971C104.594 20.1559 104.8 19.3569 104.8 18.3001V15.5359ZM112.448 15.5552L113.183 20.4265L115.812 10.3554H117.9L120.509 20.3492L121.321 15.5552L122.326 10.3554H124.685L121.727 23.5H119.349L116.817 13.7189L114.265 23.5H111.888L108.93 10.3554H111.443L112.448 15.5552ZM125.666 18.3775V16.4444H131.543V18.3775H125.666ZM134.332 23.5V10.3554H136.459C137.477 11.6827 138.443 13.0874 139.358 14.5694C140.273 16.0385 141.104 17.5527 141.852 19.112L141.678 15.188V10.3554H143.901V23.5H141.774C140.95 21.8763 140.093 20.2461 139.203 18.6094C138.327 16.9599 137.393 15.407 136.401 13.9508L136.555 18.4741V23.5H134.332ZM155.144 21.277V23.5H147.527V10.3554H154.95V12.5784H149.847V15.7292H154.37V17.9522H149.847V21.277H155.144ZM164.154 23.5L161.409 18.6868L158.8 23.5H156.364L160.211 16.6764L156.577 10.3554H159.205L161.738 14.7627L164.115 10.3554H166.551L162.936 16.7924L166.783 23.5H164.154ZM167.331 12.5784V10.3554H176.996V12.5784H173.323V23.5H171.003V12.5784H167.331Z" fill="url(#paint7_linear_689_280)"/>
<defs>
<linearGradient id="paint0_linear_689_280" x1="4.09625" y1="-5.42116" x2="4.09625" y2="37.9417" gradientUnits="userSpaceOnUse">
<stop stop-color="#7068E0"/>
<stop offset="0.47" stop-color="#7068E0"/>
<stop offset="0.6" stop-color="#7A69E0"/>
<stop offset="0.81" stop-color="#976DE2"/>
<stop offset="1" stop-color="#B771E5"/>
</linearGradient>
<linearGradient id="paint1_linear_689_280" x1="27.9027" y1="-0.000708633" x2="27.9027" y2="-0.000708633" gradientUnits="userSpaceOnUse">
<stop stop-color="#7068E0"/>
<stop offset="0.47" stop-color="#7068E0"/>
<stop offset="0.6" stop-color="#7A69E0"/>
<stop offset="0.81" stop-color="#976DE2"/>
<stop offset="1" stop-color="#B771E5"/>
</linearGradient>
<linearGradient id="paint2_linear_689_280" x1="16.0014" y1="-5.4211" x2="16.0014" y2="37.9417" gradientUnits="userSpaceOnUse">
<stop stop-color="#7068E0"/>
<stop offset="0.47" stop-color="#7068E0"/>
<stop offset="0.6" stop-color="#7A69E0"/>
<stop offset="0.81" stop-color="#976DE2"/>
<stop offset="1" stop-color="#B771E5"/>
</linearGradient>
<linearGradient id="paint3_linear_689_280" x1="6.50043e-07" y1="-5.42022" x2="0.140017" y2="37.9426" gradientUnits="userSpaceOnUse">
<stop stop-color="#7068E0"/>
<stop offset="0.47" stop-color="#7068E0"/>
<stop offset="0.6" stop-color="#7A69E0"/>
<stop offset="0.81" stop-color="#976DE2"/>
<stop offset="1" stop-color="#B771E5"/>
</linearGradient>
<linearGradient id="paint4_linear_689_280" x1="27.9026" y1="-5.42022" x2="27.9026" y2="37.9426" gradientUnits="userSpaceOnUse">
<stop stop-color="#7068E0"/>
<stop offset="0.47" stop-color="#7068E0"/>
<stop offset="0.6" stop-color="#7A69E0"/>
<stop offset="0.81" stop-color="#976DE2"/>
<stop offset="1" stop-color="#B771E5"/>
</linearGradient>
<linearGradient id="paint5_linear_689_280" x1="10.048" y1="-5.42035" x2="10.048" y2="37.9425" gradientUnits="userSpaceOnUse">
<stop stop-color="#7068E0"/>
<stop offset="0.47" stop-color="#7068E0"/>
<stop offset="0.6" stop-color="#7A69E0"/>
<stop offset="0.81" stop-color="#976DE2"/>
<stop offset="1" stop-color="#B771E5"/>
</linearGradient>
<linearGradient id="paint6_linear_689_280" x1="21.952" y1="-5.42004" x2="21.952" y2="37.9428" gradientUnits="userSpaceOnUse">
<stop stop-color="#7068E0"/>
<stop offset="0.47" stop-color="#7068E0"/>
<stop offset="0.6" stop-color="#7A69E0"/>
<stop offset="0.81" stop-color="#976DE2"/>
<stop offset="1" stop-color="#B771E5"/>
</linearGradient>
<linearGradient id="paint7_linear_689_280" x1="109.971" y1="36.5357" x2="109.971" y2="4.5" gradientUnits="userSpaceOnUse">
<stop stop-color="#EFEEFF"/>
<stop offset="1" stop-color="white"/>
</linearGradient>
<clipPath id="clip0_689_280">
<rect width="32" height="32" fill="white"/>
</clipPath>
</defs>
</svg>
