<?xml version="1.0" encoding="UTF-8" standalone="no"?>
<!DOCTYPE svg PUBLIC "-//W3C//DTD SVG 1.1//EN" "http://www.w3.org/Graphics/SVG/1.1/DTD/svg11.dtd">
<svg width="100%" height="100%" viewBox="0 0 123 31" version="1.1" xmlns="http://www.w3.org/2000/svg" xmlns:xlink="http://www.w3.org/1999/xlink" xml:space="preserve" xmlns:serif="http://www.serif.com/" style="fill-rule:evenodd;clip-rule:evenodd;stroke-linejoin:round;stroke-miterlimit:2;">
    <g id="Artboard1" transform="matrix(0.87532,0,0,1,0,0)">
        <rect x="0" y="0" width="139.976" height="30.515" style="fill:none;"/>
        <clipPath id="_clip1">
            <rect x="0" y="0" width="139.976" height="30.515"/>
        </clipPath>
        <g clip-path="url(#_clip1)">
            <g transform="matrix(1.14244,0,0,1,-9.45755,0)">
                <g transform="matrix(1,-0,-0,1,8.27838,-0)">
                </g>
            </g>
            <g transform="matrix(1.14244,0,0,1,-58.5769,15.4209)">
                <g transform="matrix(18,0,0,18,78.5196,5.23728)">
                </g>
                <g transform="matrix(18,0,0,18,84.5137,5.23728)">
                </g>
                <g transform="matrix(18,0,0,18,114.511,5.23728)">
                </g>
                <text x="50.535px" y="5.237px" style="font-family:'Arial-BoldMT', 'Arial', sans-serif;font-weight:700;font-size:18px;fill:white;">git-ﬂow</text>
            </g>
            <g transform="matrix(1.14244,0,0,1,-52.6843,0.280052)">
                <g transform="matrix(0.881638,0,0,1,13.4915,0)">
                    <path d="M174.966,10.649L174.966,20.791C174.966,23.59 172.388,25.863 169.213,25.863L119.738,25.863C116.563,25.863 113.985,23.59 113.985,20.791L113.985,10.649C113.985,7.85 116.563,5.577 119.738,5.577L169.213,5.577C172.388,5.577 174.966,7.85 174.966,10.649Z" style="fill:rgb(112,104,224);"/>
                </g>
                <g transform="matrix(1,0,0,1,68.5658,16.2092)">
                    <g transform="matrix(16,0,0,16,93.2071,5.23728)">
                    </g>
                    <text x="50.535px" y="5.237px" style="font-family:'Arial-BoldMT', 'Arial', sans-serif;font-weight:700;font-size:16px;fill:white;">NEXT</text>
                </g>
            </g>
        </g>
    </g>
</svg>
